solid OpenSCAD_Model
  facet normal -1 0 0
    outer loop
      vertex 12.5 30 5
      vertex 12.5 103 5.23763
      vertex 12.5 103 5
    endloop
  endfacet
  facet normal -1 -0 0
    outer loop
      vertex 12.5 103 5.23763
      vertex 12.5 30 5
      vertex 12.5 30 23.4386
    endloop
  endfacet
  facet normal 1 0 0
    outer loop
      vertex 17.5 30 5
      vertex 17.5 103 5.23763
      vertex 17.5 30 23.4386
    endloop
  endfacet
  facet normal 1 0 0
    outer loop
      vertex 17.5 103 5.23763
      vertex 17.5 30 5
      vertex 17.5 103 5
    endloop
  endfacet
  facet normal 0 1 -0
    outer loop
      vertex 17.5 103 5
      vertex 12.5 103 5.23763
      vertex 17.5 103 5.23763
    endloop
  endfacet
  facet normal 0 1 0
    outer loop
      vertex 12.5 103 5.23763
      vertex 17.5 103 5
      vertex 12.5 103 5
    endloop
  endfacet
  facet normal 0 0 -1
    outer loop
      vertex 0 30.0125 0
      vertex 30 30.0125 0
      vertex 30 0 0
    endloop
  endfacet
  facet normal 0 0 -1
    outer loop
      vertex 30 30.0125 0
      vertex 0 30.0125 0
      vertex 27.7782 33.5 0
    endloop
  endfacet
  facet normal 0 -0 -1
    outer loop
      vertex 2.22178 33.5 0
      vertex 27.7782 33.5 0
      vertex 0 30.0125 0
    endloop
  endfacet
  facet normal 0 -0 -1
    outer loop
      vertex 5.04154 38.9167 0
      vertex 24.9585 38.9167 0
      vertex 2.22178 33.5 0
    endloop
  endfacet
  facet normal 0 -0 -1
    outer loop
      vertex 7.37848 44.5586 0
      vertex 22.6215 44.5586 0
      vertex 5.04154 38.9167 0
    endloop
  endfacet
  facet normal 0 0 -1
    outer loop
      vertex 11.6 68.5 0
      vertex 18.4 68.5 0
      vertex 18.6664 62.3991 0
    endloop
  endfacet
  facet normal 0 0 -1
    outer loop
      vertex 18.4 68.5 0
      vertex 10.5365 80.6554 0
      vertex 16.5679 105.082 0
    endloop
  endfacet
  facet normal 0 0 -1
    outer loop
      vertex 18.4 68.5 0
      vertex 11.6 68.5 0
      vertex 11.3336 74.6009 0
    endloop
  endfacet
  facet normal 0 0 -1
    outer loop
      vertex 11.3336 62.3991 0
      vertex 18.6664 62.3991 0
      vertex 19.4635 56.3446 0
    endloop
  endfacet
  facet normal 0 0 -1
    outer loop
      vertex 22.6215 44.5586 0
      vertex 7.37848 44.5586 0
      vertex 20.7852 50.3827 0
    endloop
  endfacet
  facet normal 0 0 -1
    outer loop
      vertex 18.6664 62.3991 0
      vertex 11.3336 62.3991 0
      vertex 11.6 68.5 0
    endloop
  endfacet
  facet normal 0 0 -1
    outer loop
      vertex 19.4635 56.3446 0
      vertex 10.5365 56.3446 0
      vertex 11.3336 62.3991 0
    endloop
  endfacet
  facet normal -0 0 -1
    outer loop
      vertex 19.4635 56.3446 0
      vertex 9.21481 50.3827 0
      vertex 10.5365 56.3446 0
    endloop
  endfacet
  facet normal 0 0 -1
    outer loop
      vertex 20.7852 50.3827 0
      vertex 9.21481 50.3827 0
      vertex 19.4635 56.3446 0
    endloop
  endfacet
  facet normal 0 -0 -1
    outer loop
      vertex 9.21481 50.3827 0
      vertex 20.7852 50.3827 0
      vertex 7.37848 44.5586 0
    endloop
  endfacet
  facet normal 0 0 -1
    outer loop
      vertex 24.9585 38.9167 0
      vertex 5.04154 38.9167 0
      vertex 22.6215 44.5586 0
    endloop
  endfacet
  facet normal 0 0 -1
    outer loop
      vertex 0 30.0125 0
      vertex 30 0 0
      vertex 0 0 0
    endloop
  endfacet
  facet normal 0 0 -1
    outer loop
      vertex 27.7782 33.5 0
      vertex 2.22178 33.5 0
      vertex 24.9585 38.9167 0
    endloop
  endfacet
  facet normal 0 0 -1
    outer loop
      vertex 25.037 108.853 0
      vertex 30.1769 107.265 0
      vertex 27.7782 103.5 0
    endloop
  endfacet
  facet normal 0 0 -1
    outer loop
      vertex 30.1769 107.265 0
      vertex 25.037 108.853 0
      vertex 26.4347 110.405 0
    endloop
  endfacet
  facet normal 0 0 -1
    outer loop
      vertex 22.5 107.01 0
      vertex 27.7782 103.5 0
      vertex 24.9585 98.0833 0
    endloop
  endfacet
  facet normal 0 0 -1
    outer loop
      vertex 16.5679 105.082 0
      vertex 24.9585 98.0833 0
      vertex 22.6215 92.4414 0
    endloop
  endfacet
  facet normal 0 0 -1
    outer loop
      vertex 27.7782 103.5 0
      vertex 22.5 107.01 0
      vertex 25.037 108.853 0
    endloop
  endfacet
  facet normal 0 0 -1
    outer loop
      vertex 16.5679 105.082 0
      vertex 22.6215 92.4414 0
      vertex 20.7852 86.6173 0
    endloop
  endfacet
  facet normal 0 0 -1
    outer loop
      vertex 24.9585 98.0833 0
      vertex 19.6353 105.734 0
      vertex 22.5 107.01 0
    endloop
  endfacet
  facet normal 0 0 -1
    outer loop
      vertex 16.5679 105.082 0
      vertex 20.7852 86.6173 0
      vertex 19.4635 80.6554 0
    endloop
  endfacet
  facet normal 0 0 -1
    outer loop
      vertex 16.5679 105.082 0
      vertex 19.4635 80.6554 0
      vertex 18.6664 74.6009 0
    endloop
  endfacet
  facet normal 0 0 -1
    outer loop
      vertex 16.5679 105.082 0
      vertex 18.6664 74.6009 0
      vertex 18.4 68.5 0
    endloop
  endfacet
  facet normal 0 0 -1
    outer loop
      vertex 24.9585 98.0833 0
      vertex 16.5679 105.082 0
      vertex 19.6353 105.734 0
    endloop
  endfacet
  facet normal 0 0 -1
    outer loop
      vertex 18.4 68.5 0
      vertex 11.3336 74.6009 0
      vertex 10.5365 80.6554 0
    endloop
  endfacet
  facet normal 0 0 -1
    outer loop
      vertex 9.21481 86.6173 0
      vertex 16.5679 105.082 0
      vertex 10.5365 80.6554 0
    endloop
  endfacet
  facet normal 0 0 -1
    outer loop
      vertex 7.37848 92.4414 0
      vertex 16.5679 105.082 0
      vertex 9.21481 86.6173 0
    endloop
  endfacet
  facet normal -0 0 -1
    outer loop
      vertex 16.5679 105.082 0
      vertex 7.37848 92.4414 0
      vertex 13.4321 105.082 0
    endloop
  endfacet
  facet normal 0 0 -1
    outer loop
      vertex 5.04154 98.0833 0
      vertex 13.4321 105.082 0
      vertex 7.37848 92.4414 0
    endloop
  endfacet
  facet normal -0 0 -1
    outer loop
      vertex 13.4321 105.082 0
      vertex 5.04154 98.0833 0
      vertex 10.3647 105.734 0
    endloop
  endfacet
  facet normal -0 0 -1
    outer loop
      vertex 10.3647 105.734 0
      vertex 5.04154 98.0833 0
      vertex 7.5 107.01 0
    endloop
  endfacet
  facet normal 0 0 -1
    outer loop
      vertex 2.22178 103.5 0
      vertex 7.5 107.01 0
      vertex 5.04154 98.0833 0
    endloop
  endfacet
  facet normal -0 0 -1
    outer loop
      vertex 7.5 107.01 0
      vertex 2.22178 103.5 0
      vertex 4.96304 108.853 0
    endloop
  endfacet
  facet normal 0 0 -1
    outer loop
      vertex -1.05936 108.65 0
      vertex 4.96304 108.853 0
      vertex 2.22178 103.5 0
    endloop
  endfacet
  facet normal -0 0 -1
    outer loop
      vertex 4.96304 108.853 0
      vertex -1.05936 108.65 0
      vertex 2.86474 111.183 0
    endloop
  endfacet
  facet normal 0 0 -1
    outer loop
      vertex -2.49491 110.521 0
      vertex 2.86474 111.183 0
      vertex -1.05936 108.65 0
    endloop
  endfacet
  facet normal 0 0 -1
    outer loop
      vertex -3.27091 111.865 0
      vertex 1.29682 113.899 0
      vertex -2.49491 110.521 0
    endloop
  endfacet
  facet normal -0 0 -1
    outer loop
      vertex 2.86474 111.183 0
      vertex -2.49491 110.521 0
      vertex 1.29682 113.899 0
    endloop
  endfacet
  facet normal 0 0 -1
    outer loop
      vertex 34.563 115.842 0
      vertex 29.6722 116.881 0
      vertex 30 120 0
    endloop
  endfacet
  facet normal 0 0 -1
    outer loop
      vertex 31.0594 108.65 0
      vertex 28.7032 113.899 0
      vertex 29.6722 116.881 0
    endloop
  endfacet
  facet normal 0 0 -1
    outer loop
      vertex 31.0594 108.65 0
      vertex 27.1353 111.183 0
      vertex 28.7032 113.899 0
    endloop
  endfacet
  facet normal 0 -0 -1
    outer loop
      vertex 27.1353 111.183 0
      vertex 30.4478 107.69 0
      vertex 26.7695 110.777 0
    endloop
  endfacet
  facet normal 0 0 -1
    outer loop
      vertex 30 120 0
      vertex 35 120 0
      vertex 34.563 115.842 0
    endloop
  endfacet
  facet normal 0 0 -1
    outer loop
      vertex 29.6722 116.881 0
      vertex 34.563 115.842 0
      vertex 33.2709 111.865 0
    endloop
  endfacet
  facet normal 0 0 -1
    outer loop
      vertex 35 120 0
      vertex 30 120 0
      vertex 34.563 124.158 0
    endloop
  endfacet
  facet normal 0 0 -1
    outer loop
      vertex 29.6722 116.881 0
      vertex 33.2709 111.865 0
      vertex 32.4949 110.521 0
    endloop
  endfacet
  facet normal 0 0 -1
    outer loop
      vertex 29.6722 123.119 0
      vertex 34.563 124.158 0
      vertex 30 120 0
    endloop
  endfacet
  facet normal 0 0 -1
    outer loop
      vertex 29.6722 116.881 0
      vertex 32.4949 110.521 0
      vertex 31.0594 108.65 0
    endloop
  endfacet
  facet normal 0 0 -1
    outer loop
      vertex 27.1353 111.183 0
      vertex 31.0594 108.65 0
      vertex 30.4478 107.69 0
    endloop
  endfacet
  facet normal -0 0 -1
    outer loop
      vertex 34.563 124.158 0
      vertex 29.6722 123.119 0
      vertex 33.2709 128.135 0
    endloop
  endfacet
  facet normal 0 0 -1
    outer loop
      vertex 28.7032 126.101 0
      vertex 33.2709 128.135 0
      vertex 29.6722 123.119 0
    endloop
  endfacet
  facet normal -0 0 -1
    outer loop
      vertex 33.2709 128.135 0
      vertex 28.7032 126.101 0
      vertex 31.1803 131.756 0
    endloop
  endfacet
  facet normal 0 0 -1
    outer loop
      vertex 27.1353 128.817 0
      vertex 31.1803 131.756 0
      vertex 28.7032 126.101 0
    endloop
  endfacet
  facet normal -0 0 -1
    outer loop
      vertex 31.1803 131.756 0
      vertex 27.1353 128.817 0
      vertex 28.3826 134.863 0
    endloop
  endfacet
  facet normal 0 0 -1
    outer loop
      vertex 25.037 131.147 0
      vertex 28.3826 134.863 0
      vertex 27.1353 128.817 0
    endloop
  endfacet
  facet normal 0 0 -1
    outer loop
      vertex 25.037 131.147 0
      vertex 25 137.321 0
      vertex 28.3826 134.863 0
    endloop
  endfacet
  facet normal 0 0 -1
    outer loop
      vertex 22.5 132.99 0
      vertex 25 137.321 0
      vertex 25.037 131.147 0
    endloop
  endfacet
  facet normal 0 0 -1
    outer loop
      vertex 22.5 132.99 0
      vertex 21.1803 139.021 0
      vertex 25 137.321 0
    endloop
  endfacet
  facet normal 0 0 -1
    outer loop
      vertex 19.6353 134.266 0
      vertex 21.1803 139.021 0
      vertex 22.5 132.99 0
    endloop
  endfacet
  facet normal 0 0 -1
    outer loop
      vertex 19.6353 134.266 0
      vertex 17.0906 139.89 0
      vertex 21.1803 139.021 0
    endloop
  endfacet
  facet normal 0 0 -1
    outer loop
      vertex 16.5679 134.918 0
      vertex 17.0906 139.89 0
      vertex 19.6353 134.266 0
    endloop
  endfacet
  facet normal 0 0 -1
    outer loop
      vertex 13.4321 134.918 0
      vertex 17.0906 139.89 0
      vertex 16.5679 134.918 0
    endloop
  endfacet
  facet normal 0 0 -1
    outer loop
      vertex 13.4321 134.918 0
      vertex 12.9094 139.89 0
      vertex 17.0906 139.89 0
    endloop
  endfacet
  facet normal 0 0 -1
    outer loop
      vertex 10.3647 134.266 0
      vertex 12.9094 139.89 0
      vertex 13.4321 134.918 0
    endloop
  endfacet
  facet normal 0 0 -1
    outer loop
      vertex 10.3647 134.266 0
      vertex 8.81966 139.021 0
      vertex 12.9094 139.89 0
    endloop
  endfacet
  facet normal 0 0 -1
    outer loop
      vertex 7.5 132.99 0
      vertex 8.81966 139.021 0
      vertex 10.3647 134.266 0
    endloop
  endfacet
  facet normal 0 0 -1
    outer loop
      vertex 7.5 132.99 0
      vertex 5 137.321 0
      vertex 8.81966 139.021 0
    endloop
  endfacet
  facet normal 0 0 -1
    outer loop
      vertex 4.96304 131.147 0
      vertex 5 137.321 0
      vertex 7.5 132.99 0
    endloop
  endfacet
  facet normal 0 0 -1
    outer loop
      vertex 1.61739 134.863 0
      vertex 4.96304 131.147 0
      vertex 2.86474 128.817 0
    endloop
  endfacet
  facet normal 0 0 -1
    outer loop
      vertex 4.96304 131.147 0
      vertex 1.61739 134.863 0
      vertex 5 137.321 0
    endloop
  endfacet
  facet normal 0 0 -1
    outer loop
      vertex -1.18034 131.756 0
      vertex 2.86474 128.817 0
      vertex 1.29682 126.101 0
    endloop
  endfacet
  facet normal 0 0 -1
    outer loop
      vertex -3.27091 128.135 0
      vertex 1.29682 126.101 0
      vertex 0.327785 123.119 0
    endloop
  endfacet
  facet normal 0 0 -1
    outer loop
      vertex 2.86474 128.817 0
      vertex -1.18034 131.756 0
      vertex 1.61739 134.863 0
    endloop
  endfacet
  facet normal 0 0 -1
    outer loop
      vertex -4.56295 124.158 0
      vertex 0.327785 123.119 0
      vertex 0 120 0
    endloop
  endfacet
  facet normal -0 0 -1
    outer loop
      vertex 1.29682 113.899 0
      vertex -3.27091 111.865 0
      vertex 0.327785 116.881 0
    endloop
  endfacet
  facet normal 0 0 -1
    outer loop
      vertex -4.56295 115.842 0
      vertex 0.327785 116.881 0
      vertex -3.27091 111.865 0
    endloop
  endfacet
  facet normal -0 0 -1
    outer loop
      vertex 0.327785 116.881 0
      vertex -4.56295 115.842 0
      vertex 0 120 0
    endloop
  endfacet
  facet normal 0 0 -1
    outer loop
      vertex 1.29682 126.101 0
      vertex -3.27091 128.135 0
      vertex -1.18034 131.756 0
    endloop
  endfacet
  facet normal -0 0 -1
    outer loop
      vertex 0 120 0
      vertex -4.56295 115.842 0
      vertex -5 120 0
    endloop
  endfacet
  facet normal 0 0 -1
    outer loop
      vertex 0.327785 123.119 0
      vertex -4.56295 124.158 0
      vertex -3.27091 128.135 0
    endloop
  endfacet
  facet normal 0 0 -1
    outer loop
      vertex 0 120 0
      vertex -5 120 0
      vertex -4.56295 124.158 0
    endloop
  endfacet
  facet normal -0 0.241922 0.970296
    outer loop
      vertex 12.5 103 5.23763
      vertex 17.5 30 23.4386
      vertex 17.5 103 5.23763
    endloop
  endfacet
  facet normal 0 0.241922 0.970296
    outer loop
      vertex 17.5 30 23.4386
      vertex 12.5 103 5.23763
      vertex 12.5 30 23.4386
    endloop
  endfacet
  facet normal -1 0 0
    outer loop
      vertex 0 30.0125 0
      vertex 0 30 5
      vertex 0 30.0125 5
    endloop
  endfacet
  facet normal -1 0 0
    outer loop
      vertex 0 30.0125 0
      vertex 0 25 5
      vertex 0 30 5
    endloop
  endfacet
  facet normal -1 0 0
    outer loop
      vertex 0 30.0125 0
      vertex 0 5 5
      vertex 0 25 5
    endloop
  endfacet
  facet normal -1 0 0
    outer loop
      vertex 0 0 0
      vertex 0 5 5
      vertex 0 30.0125 0
    endloop
  endfacet
  facet normal -1 -0 0
    outer loop
      vertex 0 5 5
      vertex 0 0 0
      vertex 0 0 5
    endloop
  endfacet
  facet normal -0 0 1
    outer loop
      vertex 11.547 5 25
      vertex 18.453 0 25
      vertex 18.453 5 25
    endloop
  endfacet
  facet normal 0 0 1
    outer loop
      vertex 18.453 0 25
      vertex 11.547 5 25
      vertex 11.547 0 25
    endloop
  endfacet
  facet normal -0 0 1
    outer loop
      vertex 11.547 30 25
      vertex 18.453 25 25
      vertex 18.453 30 25
    endloop
  endfacet
  facet normal 0 0 1
    outer loop
      vertex 18.453 25 25
      vertex 11.547 30 25
      vertex 11.547 25 25
    endloop
  endfacet
  facet normal 1 -0 0
    outer loop
      vertex 30 30 5
      vertex 30 30.0125 0
      vertex 30 30.0125 5
    endloop
  endfacet
  facet normal 1 -0 0
    outer loop
      vertex 30 25 5
      vertex 30 30.0125 0
      vertex 30 30 5
    endloop
  endfacet
  facet normal 1 -0 0
    outer loop
      vertex 30 5 5
      vertex 30 30.0125 0
      vertex 30 25 5
    endloop
  endfacet
  facet normal 1 0 0
    outer loop
      vertex 30 0 0
      vertex 30 5 5
      vertex 30 0 5
    endloop
  endfacet
  facet normal 1 0 0
    outer loop
      vertex 30 5 5
      vertex 30 0 0
      vertex 30 30.0125 0
    endloop
  endfacet
  facet normal 0 -1 0
    outer loop
      vertex 0 0 5
      vertex 18.453 0 25
      vertex 11.547 0 25
    endloop
  endfacet
  facet normal 0 -1 0
    outer loop
      vertex 0 0 5
      vertex 30 0 5
      vertex 18.453 0 25
    endloop
  endfacet
  facet normal 0 -1 0
    outer loop
      vertex 0 0 0
      vertex 30 0 5
      vertex 0 0 5
    endloop
  endfacet
  facet normal 0 -1 -0
    outer loop
      vertex 30 0 5
      vertex 0 0 0
      vertex 30 0 0
    endloop
  endfacet
  facet normal 0 1 0
    outer loop
      vertex 18.453 30 25
      vertex 17.5 30 23.4386
      vertex 11.547 30 25
    endloop
  endfacet
  facet normal 0 1 0
    outer loop
      vertex 30 30 5
      vertex 17.5 30 23.4386
      vertex 18.453 30 25
    endloop
  endfacet
  facet normal 0 1 0
    outer loop
      vertex 17.5 30 23.4386
      vertex 30 30 5
      vertex 17.5 30 5
    endloop
  endfacet
  facet normal 0 1 -0
    outer loop
      vertex 12.5 30 23.4386
      vertex 11.547 30 25
      vertex 17.5 30 23.4386
    endloop
  endfacet
  facet normal 0 1 0
    outer loop
      vertex 0 30 5
      vertex 12.5 30 23.4386
      vertex 12.5 30 5
    endloop
  endfacet
  facet normal 0 1 0
    outer loop
      vertex 12.5 30 23.4386
      vertex 0 30 5
      vertex 11.547 30 25
    endloop
  endfacet
  facet normal 0 -1 0
    outer loop
      vertex 0 25 5
      vertex 18.453 25 25
      vertex 11.547 25 25
    endloop
  endfacet
  facet normal 0 -1 -0
    outer loop
      vertex 18.453 25 25
      vertex 0 25 5
      vertex 30 25 5
    endloop
  endfacet
  facet normal 0 0 1
    outer loop
      vertex 30 120 5
      vertex 35 120 5
      vertex 34.563 124.158 5
    endloop
  endfacet
  facet normal 0 0 1
    outer loop
      vertex 29.6722 123.119 5
      vertex 34.563 124.158 5
      vertex 33.2709 128.135 5
    endloop
  endfacet
  facet normal 0 0 1
    outer loop
      vertex 35 120 5
      vertex 30 120 5
      vertex 34.563 115.842 5
    endloop
  endfacet
  facet normal -0 0 1
    outer loop
      vertex 29.6722 116.881 5
      vertex 34.563 115.842 5
      vertex 30 120 5
    endloop
  endfacet
  facet normal 0 0 1
    outer loop
      vertex 28.7032 126.101 5
      vertex 33.2709 128.135 5
      vertex 31.1803 131.756 5
    endloop
  endfacet
  facet normal 0 0 1
    outer loop
      vertex 34.563 115.842 5
      vertex 29.6722 116.881 5
      vertex 33.2709 111.865 5
    endloop
  endfacet
  facet normal -0 0 1
    outer loop
      vertex 28.7032 113.899 5
      vertex 33.2709 111.865 5
      vertex 29.6722 116.881 5
    endloop
  endfacet
  facet normal 0 0 1
    outer loop
      vertex 33.2709 111.865 5
      vertex 28.7032 113.899 5
      vertex 32.4949 110.521 5
    endloop
  endfacet
  facet normal 0 0 1
    outer loop
      vertex 34.563 124.158 5
      vertex 29.6722 123.119 5
      vertex 30 120 5
    endloop
  endfacet
  facet normal 0 0 1
    outer loop
      vertex 33.2709 128.135 5
      vertex 28.7032 126.101 5
      vertex 29.6722 123.119 5
    endloop
  endfacet
  facet normal 0 0 1
    outer loop
      vertex 27.1353 128.817 5
      vertex 31.1803 131.756 5
      vertex 28.3826 134.863 5
    endloop
  endfacet
  facet normal 0 0 1
    outer loop
      vertex 31.1803 131.756 5
      vertex 27.1353 128.817 5
      vertex 28.7032 126.101 5
    endloop
  endfacet
  facet normal 0 0 1
    outer loop
      vertex 28.3826 134.863 5
      vertex 25.037 131.147 5
      vertex 27.1353 128.817 5
    endloop
  endfacet
  facet normal 0 0 1
    outer loop
      vertex 25 137.321 5
      vertex 25.037 131.147 5
      vertex 28.3826 134.863 5
    endloop
  endfacet
  facet normal 0 0 1
    outer loop
      vertex 25 137.321 5
      vertex 22.5 132.99 5
      vertex 25.037 131.147 5
    endloop
  endfacet
  facet normal 0 0 1
    outer loop
      vertex 21.1803 139.021 5
      vertex 22.5 132.99 5
      vertex 25 137.321 5
    endloop
  endfacet
  facet normal 0 0 1
    outer loop
      vertex 21.1803 139.021 5
      vertex 19.6353 134.266 5
      vertex 22.5 132.99 5
    endloop
  endfacet
  facet normal 0 0 1
    outer loop
      vertex 17.0906 139.89 5
      vertex 19.6353 134.266 5
      vertex 21.1803 139.021 5
    endloop
  endfacet
  facet normal 0 0 1
    outer loop
      vertex 17.0906 139.89 5
      vertex 16.5679 134.918 5
      vertex 19.6353 134.266 5
    endloop
  endfacet
  facet normal 0 0 1
    outer loop
      vertex 17.0906 139.89 5
      vertex 13.4321 134.918 5
      vertex 16.5679 134.918 5
    endloop
  endfacet
  facet normal -0 0 1
    outer loop
      vertex 12.9094 139.89 5
      vertex 13.4321 134.918 5
      vertex 17.0906 139.89 5
    endloop
  endfacet
  facet normal 0 0 1
    outer loop
      vertex 12.9094 139.89 5
      vertex 10.3647 134.266 5
      vertex 13.4321 134.918 5
    endloop
  endfacet
  facet normal -0 0 1
    outer loop
      vertex 8.81966 139.021 5
      vertex 10.3647 134.266 5
      vertex 12.9094 139.89 5
    endloop
  endfacet
  facet normal 0 0 1
    outer loop
      vertex 8.81966 139.021 5
      vertex 7.5 132.99 5
      vertex 10.3647 134.266 5
    endloop
  endfacet
  facet normal -0 0 1
    outer loop
      vertex 5 137.321 5
      vertex 7.5 132.99 5
      vertex 8.81966 139.021 5
    endloop
  endfacet
  facet normal 0 0 1
    outer loop
      vertex 5 137.321 5
      vertex 4.96304 131.147 5
      vertex 7.5 132.99 5
    endloop
  endfacet
  facet normal -0 0 1
    outer loop
      vertex 1.61739 134.863 5
      vertex 4.96304 131.147 5
      vertex 5 137.321 5
    endloop
  endfacet
  facet normal 0 0 1
    outer loop
      vertex 4.96304 131.147 5
      vertex 1.61739 134.863 5
      vertex 2.86474 128.817 5
    endloop
  endfacet
  facet normal -0 0 1
    outer loop
      vertex -1.18034 131.756 5
      vertex 2.86474 128.817 5
      vertex 1.61739 134.863 5
    endloop
  endfacet
  facet normal 0 0 1
    outer loop
      vertex 2.86474 128.817 5
      vertex -1.18034 131.756 5
      vertex 1.29682 126.101 5
    endloop
  endfacet
  facet normal -0 0 1
    outer loop
      vertex -3.27091 128.135 5
      vertex 1.29682 126.101 5
      vertex -1.18034 131.756 5
    endloop
  endfacet
  facet normal 0 0 1
    outer loop
      vertex 1.29682 126.101 5
      vertex -3.27091 128.135 5
      vertex 0.327785 123.119 5
    endloop
  endfacet
  facet normal -0 0 1
    outer loop
      vertex -4.56295 124.158 5
      vertex 0.327785 123.119 5
      vertex -3.27091 128.135 5
    endloop
  endfacet
  facet normal 0 0 1
    outer loop
      vertex 0.327785 123.119 5
      vertex -4.56295 124.158 5
      vertex 0 120 5
    endloop
  endfacet
  facet normal 0 0 1
    outer loop
      vertex -5 120 5
      vertex 0 120 5
      vertex -4.56295 124.158 5
    endloop
  endfacet
  facet normal 0 -0 1
    outer loop
      vertex -4.56295 115.842 5
      vertex 0 120 5
      vertex -5 120 5
    endloop
  endfacet
  facet normal 0 -0 1
    outer loop
      vertex -3.27091 111.865 5
      vertex 0 120 5
      vertex -4.56295 115.842 5
    endloop
  endfacet
  facet normal 0 0 1
    outer loop
      vertex 0 120 5
      vertex -3.27091 111.865 5
      vertex -2.49491 110.521 5
    endloop
  endfacet
  facet normal 0 0 1
    outer loop
      vertex 0 120 5
      vertex -2.49491 110.521 5
      vertex -1.05936 108.65 5
    endloop
  endfacet
  facet normal -0 0 1
    outer loop
      vertex 27.1353 111.183 5
      vertex 32.4949 110.521 5
      vertex 28.7032 113.899 5
    endloop
  endfacet
  facet normal 0 0 1
    outer loop
      vertex 32.4949 110.521 5
      vertex 27.1353 111.183 5
      vertex 31.0594 108.65 5
    endloop
  endfacet
  facet normal 0 0 1
    outer loop
      vertex 31.0594 108.65 5
      vertex 27.1353 111.183 5
      vertex 30.4478 107.69 5
    endloop
  endfacet
  facet normal 0 0 1
    outer loop
      vertex 30.4478 107.69 5
      vertex 27.1353 111.183 5
      vertex 26.7695 110.777 5
    endloop
  endfacet
  facet normal -0 0 1
    outer loop
      vertex 25.037 108.853 5
      vertex 30.1769 107.265 5
      vertex 26.4347 110.405 5
    endloop
  endfacet
  facet normal 0 0 1
    outer loop
      vertex 30.1769 107.265 5
      vertex 25.037 108.853 5
      vertex 27.7782 103.5 5
    endloop
  endfacet
  facet normal -0 0 1
    outer loop
      vertex 22.5 107.01 5
      vertex 27.7782 103.5 5
      vertex 25.037 108.853 5
    endloop
  endfacet
  facet normal 0 0 1
    outer loop
      vertex 27.7782 103.5 5
      vertex 22.5 107.01 5
      vertex 24.9585 98.0833 5
    endloop
  endfacet
  facet normal -0 0 1
    outer loop
      vertex 19.6353 105.734 5
      vertex 24.9585 98.0833 5
      vertex 22.5 107.01 5
    endloop
  endfacet
  facet normal 0 0 1
    outer loop
      vertex 24.9585 98.0833 5
      vertex 17.5 103 5
      vertex 22.6215 92.4414 5
    endloop
  endfacet
  facet normal 0 0 1
    outer loop
      vertex 24.9585 98.0833 5
      vertex 19.6353 105.734 5
      vertex 17.5 103 5
    endloop
  endfacet
  facet normal 0 0 1
    outer loop
      vertex 22.6215 92.4414 5
      vertex 17.5 103 5
      vertex 20.7852 86.6173 5
    endloop
  endfacet
  facet normal 0 0 1
    outer loop
      vertex 20.7852 86.6173 5
      vertex 17.5 103 5
      vertex 19.4635 80.6554 5
    endloop
  endfacet
  facet normal 0 0 1
    outer loop
      vertex 19.4635 80.6554 5
      vertex 17.5 103 5
      vertex 18.6664 74.6009 5
    endloop
  endfacet
  facet normal 0 0 1
    outer loop
      vertex 18.6664 74.6009 5
      vertex 17.5 103 5
      vertex 18.4 68.5 5
    endloop
  endfacet
  facet normal -0 0 1
    outer loop
      vertex 16.5679 105.082 5
      vertex 17.5 103 5
      vertex 19.6353 105.734 5
    endloop
  endfacet
  facet normal -0 0 1
    outer loop
      vertex 13.4321 105.082 5
      vertex 17.5 103 5
      vertex 16.5679 105.082 5
    endloop
  endfacet
  facet normal 0 0 1
    outer loop
      vertex 13.4321 105.082 5
      vertex 12.5 103 5
      vertex 17.5 103 5
    endloop
  endfacet
  facet normal 0 0 1
    outer loop
      vertex 12.5 103 5
      vertex 11.6 68.5 5
      vertex 12.5 30 5
    endloop
  endfacet
  facet normal 0 0 1
    outer loop
      vertex 12.5 103 5
      vertex 11.3336 74.6009 5
      vertex 11.6 68.5 5
    endloop
  endfacet
  facet normal 0 0 1
    outer loop
      vertex 12.5 103 5
      vertex 10.5365 80.6554 5
      vertex 11.3336 74.6009 5
    endloop
  endfacet
  facet normal 0 0 1
    outer loop
      vertex 10.3647 105.734 5
      vertex 12.5 103 5
      vertex 13.4321 105.082 5
    endloop
  endfacet
  facet normal 0 0 1
    outer loop
      vertex 5.04154 98.0833 5
      vertex 12.5 103 5
      vertex 10.3647 105.734 5
    endloop
  endfacet
  facet normal 0 0 1
    outer loop
      vertex 12.5 103 5
      vertex 9.21481 86.6173 5
      vertex 10.5365 80.6554 5
    endloop
  endfacet
  facet normal 0 0 1
    outer loop
      vertex 5.04154 98.0833 5
      vertex 10.3647 105.734 5
      vertex 7.5 107.01 5
    endloop
  endfacet
  facet normal 0 0 1
    outer loop
      vertex 12.5 103 5
      vertex 7.37848 92.4414 5
      vertex 9.21481 86.6173 5
    endloop
  endfacet
  facet normal 0 0 1
    outer loop
      vertex 12.5 103 5
      vertex 5.04154 98.0833 5
      vertex 7.37848 92.4414 5
    endloop
  endfacet
  facet normal 0 0 1
    outer loop
      vertex 2.22178 103.5 5
      vertex 7.5 107.01 5
      vertex 4.96304 108.853 5
    endloop
  endfacet
  facet normal 0 0 1
    outer loop
      vertex -1.05936 108.65 5
      vertex 4.96304 108.853 5
      vertex 2.86474 111.183 5
    endloop
  endfacet
  facet normal 0 0 1
    outer loop
      vertex 7.5 107.01 5
      vertex 2.22178 103.5 5
      vertex 5.04154 98.0833 5
    endloop
  endfacet
  facet normal 0 0 1
    outer loop
      vertex -1.05936 108.65 5
      vertex 2.86474 111.183 5
      vertex 1.29682 113.899 5
    endloop
  endfacet
  facet normal 0 0 1
    outer loop
      vertex -1.05936 108.65 5
      vertex 1.29682 113.899 5
      vertex 0.327785 116.881 5
    endloop
  endfacet
  facet normal 0 0 1
    outer loop
      vertex 4.96304 108.853 5
      vertex -1.05936 108.65 5
      vertex 2.22178 103.5 5
    endloop
  endfacet
  facet normal 0 0 1
    outer loop
      vertex -1.05936 108.65 5
      vertex 0.327785 116.881 5
      vertex 0 120 5
    endloop
  endfacet
  facet normal 0 0 1
    outer loop
      vertex 27.7782 33.5 5
      vertex 30 30 5
      vertex 30 30.0125 5
    endloop
  endfacet
  facet normal 0 0 1
    outer loop
      vertex 27.7782 33.5 5
      vertex 17.5 30 5
      vertex 30 30 5
    endloop
  endfacet
  facet normal 0 0 1
    outer loop
      vertex 24.9585 38.9167 5
      vertex 17.5 30 5
      vertex 27.7782 33.5 5
    endloop
  endfacet
  facet normal 0 0 1
    outer loop
      vertex 22.6215 44.5586 5
      vertex 17.5 30 5
      vertex 24.9585 38.9167 5
    endloop
  endfacet
  facet normal 0 0 1
    outer loop
      vertex 20.7852 50.3827 5
      vertex 17.5 30 5
      vertex 22.6215 44.5586 5
    endloop
  endfacet
  facet normal 0 0 1
    outer loop
      vertex 19.4635 56.3446 5
      vertex 17.5 30 5
      vertex 20.7852 50.3827 5
    endloop
  endfacet
  facet normal 0 0 1
    outer loop
      vertex 18.6664 62.3991 5
      vertex 17.5 30 5
      vertex 19.4635 56.3446 5
    endloop
  endfacet
  facet normal 0 0 1
    outer loop
      vertex 18.4 68.5 5
      vertex 17.5 30 5
      vertex 18.6664 62.3991 5
    endloop
  endfacet
  facet normal 0 0 1
    outer loop
      vertex 17.5 30 5
      vertex 18.4 68.5 5
      vertex 17.5 103 5
    endloop
  endfacet
  facet normal -0 0 1
    outer loop
      vertex 11.3336 62.3991 5
      vertex 12.5 30 5
      vertex 11.6 68.5 5
    endloop
  endfacet
  facet normal -0 0 1
    outer loop
      vertex 10.5365 56.3446 5
      vertex 12.5 30 5
      vertex 11.3336 62.3991 5
    endloop
  endfacet
  facet normal -0 0 1
    outer loop
      vertex 9.21481 50.3827 5
      vertex 12.5 30 5
      vertex 10.5365 56.3446 5
    endloop
  endfacet
  facet normal -0 0 1
    outer loop
      vertex 7.37848 44.5586 5
      vertex 12.5 30 5
      vertex 9.21481 50.3827 5
    endloop
  endfacet
  facet normal -0 0 1
    outer loop
      vertex 5.04154 38.9167 5
      vertex 12.5 30 5
      vertex 7.37848 44.5586 5
    endloop
  endfacet
  facet normal -0 0 1
    outer loop
      vertex 2.22178 33.5 5
      vertex 12.5 30 5
      vertex 5.04154 38.9167 5
    endloop
  endfacet
  facet normal 0 0 1
    outer loop
      vertex 0 30 5
      vertex 2.22178 33.5 5
      vertex 0 30.0125 5
    endloop
  endfacet
  facet normal 0 0 1
    outer loop
      vertex 2.22178 33.5 5
      vertex 0 30 5
      vertex 12.5 30 5
    endloop
  endfacet
  facet normal -0 0 1
    outer loop
      vertex 0 25 5
      vertex 30 5 5
      vertex 30 25 5
    endloop
  endfacet
  facet normal 0 0 1
    outer loop
      vertex 30 5 5
      vertex 0 25 5
      vertex 0 5 5
    endloop
  endfacet
  facet normal 0 1 0
    outer loop
      vertex 30 5 5
      vertex 11.547 5 25
      vertex 18.453 5 25
    endloop
  endfacet
  facet normal 0 1 0
    outer loop
      vertex 11.547 5 25
      vertex 30 5 5
      vertex 0 5 5
    endloop
  endfacet
  facet normal 0.994522 0.104529 0
    outer loop
      vertex 35 120 5
      vertex 34.563 124.158 0
      vertex 34.563 124.158 5
    endloop
  endfacet
  facet normal 0.994522 0.104529 0
    outer loop
      vertex 34.563 124.158 0
      vertex 35 120 5
      vertex 35 120 0
    endloop
  endfacet
  facet normal -0.207912 0.978148 0
    outer loop
      vertex 12.9094 139.89 0
      vertex 8.81966 139.021 5
      vertex 12.9094 139.89 5
    endloop
  endfacet
  facet normal -0.207912 0.978148 0
    outer loop
      vertex 8.81966 139.021 5
      vertex 12.9094 139.89 0
      vertex 8.81966 139.021 0
    endloop
  endfacet
  facet normal 0.587785 0.809017 -0
    outer loop
      vertex 28.3826 134.863 0
      vertex 25 137.321 5
      vertex 28.3826 134.863 5
    endloop
  endfacet
  facet normal 0.587785 0.809017 0
    outer loop
      vertex 25 137.321 5
      vertex 28.3826 134.863 0
      vertex 25 137.321 0
    endloop
  endfacet
  facet normal -0.743145 0.66913 0
    outer loop
      vertex -1.18034 131.756 0
      vertex 1.61739 134.863 5
      vertex 1.61739 134.863 0
    endloop
  endfacet
  facet normal -0.743145 0.66913 0
    outer loop
      vertex 1.61739 134.863 5
      vertex -1.18034 131.756 0
      vertex -1.18034 131.756 5
    endloop
  endfacet
  facet normal -0.406737 0.913545 0
    outer loop
      vertex 8.81966 139.021 0
      vertex 5 137.321 5
      vertex 8.81966 139.021 5
    endloop
  endfacet
  facet normal -0.406737 0.913545 0
    outer loop
      vertex 5 137.321 5
      vertex 8.81966 139.021 0
      vertex 5 137.321 0
    endloop
  endfacet
  facet normal 0.866025 0.5 0
    outer loop
      vertex 33.2709 128.135 5
      vertex 31.1803 131.756 0
      vertex 31.1803 131.756 5
    endloop
  endfacet
  facet normal 0.866025 0.5 0
    outer loop
      vertex 31.1803 131.756 0
      vertex 33.2709 128.135 5
      vertex 33.2709 128.135 0
    endloop
  endfacet
  facet normal 0.951057 0.309017 0
    outer loop
      vertex 34.563 124.158 5
      vertex 33.2709 128.135 0
      vertex 33.2709 128.135 5
    endloop
  endfacet
  facet normal 0.951057 0.309017 0
    outer loop
      vertex 33.2709 128.135 0
      vertex 34.563 124.158 5
      vertex 34.563 124.158 0
    endloop
  endfacet
  facet normal 0.743145 0.669131 0
    outer loop
      vertex 31.1803 131.756 5
      vertex 28.3826 134.863 0
      vertex 28.3826 134.863 5
    endloop
  endfacet
  facet normal 0.743145 0.669131 0
    outer loop
      vertex 28.3826 134.863 0
      vertex 31.1803 131.756 5
      vertex 31.1803 131.756 0
    endloop
  endfacet
  facet normal 0.207912 0.978148 -0
    outer loop
      vertex 21.1803 139.021 0
      vertex 17.0906 139.89 5
      vertex 21.1803 139.021 5
    endloop
  endfacet
  facet normal 0.207912 0.978148 0
    outer loop
      vertex 17.0906 139.89 5
      vertex 21.1803 139.021 0
      vertex 17.0906 139.89 0
    endloop
  endfacet
  facet normal 0 1 -0
    outer loop
      vertex 17.0906 139.89 0
      vertex 12.9094 139.89 5
      vertex 17.0906 139.89 5
    endloop
  endfacet
  facet normal 0 1 0
    outer loop
      vertex 12.9094 139.89 5
      vertex 17.0906 139.89 0
      vertex 12.9094 139.89 0
    endloop
  endfacet
  facet normal 0.406737 0.913545 -0
    outer loop
      vertex 25 137.321 0
      vertex 21.1803 139.021 5
      vertex 25 137.321 5
    endloop
  endfacet
  facet normal 0.406737 0.913545 0
    outer loop
      vertex 21.1803 139.021 5
      vertex 25 137.321 0
      vertex 21.1803 139.021 0
    endloop
  endfacet
  facet normal -0.951057 0.309017 0
    outer loop
      vertex -4.56295 124.158 0
      vertex -3.27091 128.135 5
      vertex -3.27091 128.135 0
    endloop
  endfacet
  facet normal -0.951057 0.309017 0
    outer loop
      vertex -3.27091 128.135 5
      vertex -4.56295 124.158 0
      vertex -4.56295 124.158 5
    endloop
  endfacet
  facet normal -0.866025 0.5 0
    outer loop
      vertex -3.27091 128.135 0
      vertex -1.18034 131.756 5
      vertex -1.18034 131.756 0
    endloop
  endfacet
  facet normal -0.866025 0.5 0
    outer loop
      vertex -1.18034 131.756 5
      vertex -3.27091 128.135 0
      vertex -3.27091 128.135 5
    endloop
  endfacet
  facet normal -0.994522 0.104529 0
    outer loop
      vertex -5 120 0
      vertex -4.56295 124.158 5
      vertex -4.56295 124.158 0
    endloop
  endfacet
  facet normal -0.994522 0.104529 0
    outer loop
      vertex -4.56295 124.158 5
      vertex -5 120 0
      vertex -5 120 5
    endloop
  endfacet
  facet normal -0.587785 0.809017 0
    outer loop
      vertex 5 137.321 0
      vertex 1.61739 134.863 5
      vertex 5 137.321 5
    endloop
  endfacet
  facet normal -0.587785 0.809017 0
    outer loop
      vertex 1.61739 134.863 5
      vertex 5 137.321 0
      vertex 1.61739 134.863 0
    endloop
  endfacet
  facet normal 0.994522 -0.104529 0
    outer loop
      vertex 34.563 115.842 5
      vertex 35 120 0
      vertex 35 120 5
    endloop
  endfacet
  facet normal 0.994522 -0.104529 0
    outer loop
      vertex 35 120 0
      vertex 34.563 115.842 5
      vertex 34.563 115.842 0
    endloop
  endfacet
  facet normal -0.994522 -0.104529 0
    outer loop
      vertex -4.56295 115.842 0
      vertex -5 120 5
      vertex -5 120 0
    endloop
  endfacet
  facet normal -0.994522 -0.104529 0
    outer loop
      vertex -5 120 5
      vertex -4.56295 115.842 0
      vertex -4.56295 115.842 5
    endloop
  endfacet
  facet normal 0.866026 -0.499999 0
    outer loop
      vertex 32.4949 110.521 5
      vertex 33.2709 111.865 0
      vertex 33.2709 111.865 5
    endloop
  endfacet
  facet normal 0.866026 -0.499999 0
    outer loop
      vertex 33.2709 111.865 0
      vertex 32.4949 110.521 5
      vertex 32.4949 110.521 0
    endloop
  endfacet
  facet normal 0.951057 -0.309017 0
    outer loop
      vertex 33.2709 111.865 5
      vertex 34.563 115.842 0
      vertex 34.563 115.842 5
    endloop
  endfacet
  facet normal 0.951057 -0.309017 0
    outer loop
      vertex 34.563 115.842 0
      vertex 33.2709 111.865 5
      vertex 33.2709 111.865 0
    endloop
  endfacet
  facet normal -0.866026 -0.5 0
    outer loop
      vertex -2.49491 110.521 0
      vertex -3.27091 111.865 5
      vertex -3.27091 111.865 0
    endloop
  endfacet
  facet normal -0.866026 -0.5 0
    outer loop
      vertex -3.27091 111.865 5
      vertex -2.49491 110.521 0
      vertex -2.49491 110.521 5
    endloop
  endfacet
  facet normal -0.951057 -0.309017 0
    outer loop
      vertex -3.27091 111.865 0
      vertex -4.56295 115.842 5
      vertex -4.56295 115.842 0
    endloop
  endfacet
  facet normal -0.951057 -0.309017 0
    outer loop
      vertex -4.56295 115.842 5
      vertex -3.27091 111.865 0
      vertex -3.27091 111.865 5
    endloop
  endfacet
  facet normal -0.994522 -0.104528 0
    outer loop
      vertex 30 120 0
      vertex 29.6722 123.119 5
      vertex 29.6722 123.119 0
    endloop
  endfacet
  facet normal -0.994522 -0.104528 0
    outer loop
      vertex 29.6722 123.119 5
      vertex 30 120 0
      vertex 30 120 5
    endloop
  endfacet
  facet normal 0.207911 -0.978148 0
    outer loop
      vertex 10.3647 134.266 0
      vertex 13.4321 134.918 5
      vertex 10.3647 134.266 5
    endloop
  endfacet
  facet normal 0.207911 -0.978148 0
    outer loop
      vertex 13.4321 134.918 5
      vertex 10.3647 134.266 0
      vertex 13.4321 134.918 0
    endloop
  endfacet
  facet normal -0.207913 0.978147 0
    outer loop
      vertex 19.6353 105.734 0
      vertex 16.5679 105.082 5
      vertex 19.6353 105.734 5
    endloop
  endfacet
  facet normal -0.207913 0.978147 0
    outer loop
      vertex 16.5679 105.082 5
      vertex 19.6353 105.734 0
      vertex 16.5679 105.082 0
    endloop
  endfacet
  facet normal -0.587787 -0.809016 0
    outer loop
      vertex 22.5 132.99 0
      vertex 25.037 131.147 5
      vertex 22.5 132.99 5
    endloop
  endfacet
  facet normal -0.587787 -0.809016 -0
    outer loop
      vertex 25.037 131.147 5
      vertex 22.5 132.99 0
      vertex 25.037 131.147 0
    endloop
  endfacet
  facet normal 0.743145 -0.66913 0
    outer loop
      vertex 2.86474 128.817 5
      vertex 4.96304 131.147 0
      vertex 4.96304 131.147 5
    endloop
  endfacet
  facet normal 0.743145 -0.66913 0
    outer loop
      vertex 4.96304 131.147 0
      vertex 2.86474 128.817 5
      vertex 2.86474 128.817 0
    endloop
  endfacet
  facet normal 0.587787 -0.809016 0
    outer loop
      vertex 4.96304 131.147 0
      vertex 7.5 132.99 5
      vertex 4.96304 131.147 5
    endloop
  endfacet
  facet normal 0.587787 -0.809016 0
    outer loop
      vertex 7.5 132.99 5
      vertex 4.96304 131.147 0
      vertex 7.5 132.99 0
    endloop
  endfacet
  facet normal -0.951057 0.309017 0
    outer loop
      vertex 28.7032 113.899 0
      vertex 29.6722 116.881 5
      vertex 29.6722 116.881 0
    endloop
  endfacet
  facet normal -0.951057 0.309017 0
    outer loop
      vertex 29.6722 116.881 5
      vertex 28.7032 113.899 0
      vertex 28.7032 113.899 5
    endloop
  endfacet
  facet normal -0.866025 -0.500001 0
    outer loop
      vertex 28.7032 126.101 0
      vertex 27.1353 128.817 5
      vertex 27.1353 128.817 0
    endloop
  endfacet
  facet normal -0.866025 -0.500001 0
    outer loop
      vertex 27.1353 128.817 5
      vertex 28.7032 126.101 0
      vertex 28.7032 126.101 5
    endloop
  endfacet
  facet normal -0.951057 -0.309017 0
    outer loop
      vertex 29.6722 123.119 0
      vertex 28.7032 126.101 5
      vertex 28.7032 126.101 0
    endloop
  endfacet
  facet normal -0.951057 -0.309017 0
    outer loop
      vertex 28.7032 126.101 5
      vertex 29.6722 123.119 0
      vertex 29.6722 123.119 5
    endloop
  endfacet
  facet normal -0.743146 -0.66913 0
    outer loop
      vertex 27.1353 128.817 0
      vertex 25.037 131.147 5
      vertex 25.037 131.147 0
    endloop
  endfacet
  facet normal -0.743146 -0.66913 0
    outer loop
      vertex 25.037 131.147 5
      vertex 27.1353 128.817 0
      vertex 27.1353 128.817 5
    endloop
  endfacet
  facet normal -0.207911 -0.978148 0
    outer loop
      vertex 16.5679 134.918 0
      vertex 19.6353 134.266 5
      vertex 16.5679 134.918 5
    endloop
  endfacet
  facet normal -0.207911 -0.978148 -0
    outer loop
      vertex 19.6353 134.266 5
      vertex 16.5679 134.918 0
      vertex 19.6353 134.266 0
    endloop
  endfacet
  facet normal 0 -1 0
    outer loop
      vertex 13.4321 134.918 0
      vertex 16.5679 134.918 5
      vertex 13.4321 134.918 5
    endloop
  endfacet
  facet normal 0 -1 -0
    outer loop
      vertex 16.5679 134.918 5
      vertex 13.4321 134.918 0
      vertex 16.5679 134.918 0
    endloop
  endfacet
  facet normal -0.406737 -0.913545 0
    outer loop
      vertex 19.6353 134.266 0
      vertex 22.5 132.99 5
      vertex 19.6353 134.266 5
    endloop
  endfacet
  facet normal -0.406737 -0.913545 -0
    outer loop
      vertex 22.5 132.99 5
      vertex 19.6353 134.266 0
      vertex 22.5 132.99 0
    endloop
  endfacet
  facet normal 0.951057 -0.309017 0
    outer loop
      vertex 0.327785 123.119 5
      vertex 1.29682 126.101 0
      vertex 1.29682 126.101 5
    endloop
  endfacet
  facet normal 0.951057 -0.309017 0
    outer loop
      vertex 1.29682 126.101 0
      vertex 0.327785 123.119 5
      vertex 0.327785 123.119 0
    endloop
  endfacet
  facet normal 0.866025 -0.500001 0
    outer loop
      vertex 1.29682 126.101 5
      vertex 2.86474 128.817 0
      vertex 2.86474 128.817 5
    endloop
  endfacet
  facet normal 0.866025 -0.500001 0
    outer loop
      vertex 2.86474 128.817 0
      vertex 1.29682 126.101 5
      vertex 1.29682 126.101 0
    endloop
  endfacet
  facet normal 0.994522 -0.104528 0
    outer loop
      vertex 0 120 5
      vertex 0.327785 123.119 0
      vertex 0.327785 123.119 5
    endloop
  endfacet
  facet normal 0.994522 -0.104528 0
    outer loop
      vertex 0.327785 123.119 0
      vertex 0 120 5
      vertex 0 120 0
    endloop
  endfacet
  facet normal 0.406737 -0.913545 0
    outer loop
      vertex 7.5 132.99 0
      vertex 10.3647 134.266 5
      vertex 7.5 132.99 5
    endloop
  endfacet
  facet normal 0.406737 -0.913545 0
    outer loop
      vertex 10.3647 134.266 5
      vertex 7.5 132.99 0
      vertex 10.3647 134.266 0
    endloop
  endfacet
  facet normal -0.994522 0.104528 0
    outer loop
      vertex 29.6722 116.881 0
      vertex 30 120 5
      vertex 30 120 0
    endloop
  endfacet
  facet normal -0.994522 0.104528 0
    outer loop
      vertex 30 120 5
      vertex 29.6722 116.881 0
      vertex 29.6722 116.881 5
    endloop
  endfacet
  facet normal -0.743144 0.669131 0
    outer loop
      vertex 25.037 108.853 0
      vertex 26.4347 110.405 5
      vertex 26.4347 110.405 0
    endloop
  endfacet
  facet normal -0.743144 0.669131 0
    outer loop
      vertex 26.4347 110.405 5
      vertex 25.037 108.853 0
      vertex 25.037 108.853 5
    endloop
  endfacet
  facet normal -0.743148 0.669127 0
    outer loop
      vertex 26.7695 110.777 0
      vertex 27.1353 111.183 5
      vertex 27.1353 111.183 0
    endloop
  endfacet
  facet normal -0.743148 0.669127 0
    outer loop
      vertex 27.1353 111.183 5
      vertex 26.7695 110.777 0
      vertex 26.7695 110.777 5
    endloop
  endfacet
  facet normal 0.994522 0.104528 0
    outer loop
      vertex 0.327785 116.881 5
      vertex 0 120 0
      vertex 0 120 5
    endloop
  endfacet
  facet normal 0.994522 0.104528 0
    outer loop
      vertex 0 120 0
      vertex 0.327785 116.881 5
      vertex 0.327785 116.881 0
    endloop
  endfacet
  facet normal -0.866025 0.5 0
    outer loop
      vertex 27.1353 111.183 0
      vertex 28.7032 113.899 5
      vertex 28.7032 113.899 0
    endloop
  endfacet
  facet normal -0.866025 0.5 0
    outer loop
      vertex 28.7032 113.899 5
      vertex 27.1353 111.183 0
      vertex 27.1353 111.183 5
    endloop
  endfacet
  facet normal 0.743144 0.669131 0
    outer loop
      vertex 4.96304 108.853 5
      vertex 2.86474 111.183 0
      vertex 2.86474 111.183 5
    endloop
  endfacet
  facet normal 0.743144 0.669131 0
    outer loop
      vertex 2.86474 111.183 0
      vertex 4.96304 108.853 5
      vertex 4.96304 108.853 0
    endloop
  endfacet
  facet normal 0.587785 0.809017 -0
    outer loop
      vertex 7.5 107.01 0
      vertex 4.96304 108.853 5
      vertex 7.5 107.01 5
    endloop
  endfacet
  facet normal 0.587785 0.809017 0
    outer loop
      vertex 4.96304 108.853 5
      vertex 7.5 107.01 0
      vertex 4.96304 108.853 0
    endloop
  endfacet
  facet normal 0.951057 0.309017 0
    outer loop
      vertex 1.29682 113.899 5
      vertex 0.327785 116.881 0
      vertex 0.327785 116.881 5
    endloop
  endfacet
  facet normal 0.951057 0.309017 0
    outer loop
      vertex 0.327785 116.881 0
      vertex 1.29682 113.899 5
      vertex 1.29682 113.899 0
    endloop
  endfacet
  facet normal -0.406737 0.913545 0
    outer loop
      vertex 22.5 107.01 0
      vertex 19.6353 105.734 5
      vertex 22.5 107.01 5
    endloop
  endfacet
  facet normal -0.406737 0.913545 0
    outer loop
      vertex 19.6353 105.734 5
      vertex 22.5 107.01 0
      vertex 19.6353 105.734 0
    endloop
  endfacet
  facet normal 0.866025 0.5 0
    outer loop
      vertex 2.86474 111.183 5
      vertex 1.29682 113.899 0
      vertex 1.29682 113.899 5
    endloop
  endfacet
  facet normal 0.866025 0.5 0
    outer loop
      vertex 1.29682 113.899 0
      vertex 2.86474 111.183 5
      vertex 2.86474 111.183 0
    endloop
  endfacet
  facet normal -0.587785 0.809017 0
    outer loop
      vertex 25.037 108.853 0
      vertex 22.5 107.01 5
      vertex 25.037 108.853 5
    endloop
  endfacet
  facet normal -0.587785 0.809017 0
    outer loop
      vertex 22.5 107.01 5
      vertex 25.037 108.853 0
      vertex 22.5 107.01 0
    endloop
  endfacet
  facet normal 0.207913 0.978147 -0
    outer loop
      vertex 13.4321 105.082 0
      vertex 10.3647 105.734 5
      vertex 13.4321 105.082 5
    endloop
  endfacet
  facet normal 0.207913 0.978147 0
    outer loop
      vertex 10.3647 105.734 5
      vertex 13.4321 105.082 0
      vertex 10.3647 105.734 0
    endloop
  endfacet
  facet normal 0.406737 0.913545 -0
    outer loop
      vertex 10.3647 105.734 0
      vertex 7.5 107.01 5
      vertex 10.3647 105.734 5
    endloop
  endfacet
  facet normal 0.406737 0.913545 0
    outer loop
      vertex 7.5 107.01 5
      vertex 10.3647 105.734 0
      vertex 7.5 107.01 0
    endloop
  endfacet
  facet normal 0 1 -0
    outer loop
      vertex 16.5679 105.082 0
      vertex 13.4321 105.082 5
      vertex 16.5679 105.082 5
    endloop
  endfacet
  facet normal 0 1 0
    outer loop
      vertex 13.4321 105.082 5
      vertex 16.5679 105.082 0
      vertex 13.4321 105.082 0
    endloop
  endfacet
  facet normal -0.642787 -0.766045 0
    outer loop
      vertex 26.7695 110.777 0
      vertex 30.4478 107.69 5
      vertex 26.7695 110.777 5
    endloop
  endfacet
  facet normal -0.642787 -0.766045 -0
    outer loop
      vertex 30.4478 107.69 5
      vertex 26.7695 110.777 0
      vertex 30.4478 107.69 0
    endloop
  endfacet
  facet normal 0.642787 0.766045 -0
    outer loop
      vertex 30.1769 107.265 0
      vertex 26.4347 110.405 5
      vertex 30.1769 107.265 5
    endloop
  endfacet
  facet normal 0.642787 0.766045 0
    outer loop
      vertex 26.4347 110.405 5
      vertex 30.1769 107.265 0
      vertex 26.4347 110.405 0
    endloop
  endfacet
  facet normal 0.866025 -0 0.5
    outer loop
      vertex 18.453 0 25
      vertex 30 5 5
      vertex 18.453 5 25
    endloop
  endfacet
  facet normal 0.866025 0 0.5
    outer loop
      vertex 30 5 5
      vertex 18.453 0 25
      vertex 30 0 5
    endloop
  endfacet
  facet normal 0.866025 -0 0.5
    outer loop
      vertex 18.453 25 25
      vertex 30 30 5
      vertex 18.453 30 25
    endloop
  endfacet
  facet normal 0.866025 0 0.5
    outer loop
      vertex 30 30 5
      vertex 18.453 25 25
      vertex 30 25 5
    endloop
  endfacet
  facet normal -0.866025 0 0.5
    outer loop
      vertex 0 0 5
      vertex 11.547 5 25
      vertex 0 5 5
    endloop
  endfacet
  facet normal -0.866025 0 0.5
    outer loop
      vertex 11.547 5 25
      vertex 0 0 5
      vertex 11.547 0 25
    endloop
  endfacet
  facet normal -0.866025 0 0.5
    outer loop
      vertex 0 25 5
      vertex 11.547 30 25
      vertex 0 30 5
    endloop
  endfacet
  facet normal -0.866025 0 0.5
    outer loop
      vertex 11.547 30 25
      vertex 0 25 5
      vertex 11.547 25 25
    endloop
  endfacet
  facet normal 0.887011 -0.461748 0
    outer loop
      vertex 24.9585 98.0833 5
      vertex 27.7782 103.5 0
      vertex 27.7782 103.5 5
    endloop
  endfacet
  facet normal 0.887011 -0.461748 0
    outer loop
      vertex 27.7782 103.5 0
      vertex 24.9585 98.0833 5
      vertex 24.9585 98.0833 0
    endloop
  endfacet
  facet normal 0.843392 -0.537299 0
    outer loop
      vertex 27.7782 103.5 5
      vertex 30.1769 107.265 0
      vertex 30.1769 107.265 5
    endloop
  endfacet
  facet normal 0.843392 -0.537299 0
    outer loop
      vertex 30.1769 107.265 0
      vertex 27.7782 103.5 5
      vertex 27.7782 103.5 0
    endloop
  endfacet
  facet normal 0.843393 -0.537298 0
    outer loop
      vertex 30.4478 107.69 5
      vertex 31.0594 108.65 0
      vertex 31.0594 108.65 5
    endloop
  endfacet
  facet normal 0.843393 -0.537298 0
    outer loop
      vertex 31.0594 108.65 0
      vertex 30.4478 107.69 5
      vertex 30.4478 107.69 0
    endloop
  endfacet
  facet normal 0.991445 -0.130526 0
    outer loop
      vertex 18.6664 74.6009 5
      vertex 19.4635 80.6554 0
      vertex 19.4635 80.6554 5
    endloop
  endfacet
  facet normal 0.991445 -0.130526 0
    outer loop
      vertex 19.4635 80.6554 0
      vertex 18.6664 74.6009 5
      vertex 18.6664 74.6009 0
    endloop
  endfacet
  facet normal 0.999048 -0.0436194 0
    outer loop
      vertex 18.4 68.5 5
      vertex 18.6664 74.6009 0
      vertex 18.6664 74.6009 5
    endloop
  endfacet
  facet normal 0.999048 -0.0436194 0
    outer loop
      vertex 18.6664 74.6009 0
      vertex 18.4 68.5 5
      vertex 18.4 68.5 0
    endloop
  endfacet
  facet normal 0.887011 0.461749 0
    outer loop
      vertex 27.7782 33.5 5
      vertex 24.9585 38.9167 0
      vertex 24.9585 38.9167 5
    endloop
  endfacet
  facet normal 0.887011 0.461749 0
    outer loop
      vertex 24.9585 38.9167 0
      vertex 27.7782 33.5 5
      vertex 27.7782 33.5 0
    endloop
  endfacet
  facet normal 0.793352 -0.608763 0
    outer loop
      vertex 31.0594 108.65 5
      vertex 32.4949 110.521 0
      vertex 32.4949 110.521 5
    endloop
  endfacet
  facet normal 0.793352 -0.608763 0
    outer loop
      vertex 32.4949 110.521 0
      vertex 31.0594 108.65 5
      vertex 31.0594 108.65 0
    endloop
  endfacet
  facet normal 0.953717 -0.300706 0
    outer loop
      vertex 20.7852 86.6173 5
      vertex 22.6215 92.4414 0
      vertex 22.6215 92.4414 5
    endloop
  endfacet
  facet normal 0.953717 -0.300706 0
    outer loop
      vertex 22.6215 92.4414 0
      vertex 20.7852 86.6173 5
      vertex 20.7852 86.6173 0
    endloop
  endfacet
  facet normal 0.976296 -0.216439 0
    outer loop
      vertex 19.4635 80.6554 5
      vertex 20.7852 86.6173 0
      vertex 20.7852 86.6173 5
    endloop
  endfacet
  facet normal 0.976296 -0.216439 0
    outer loop
      vertex 20.7852 86.6173 0
      vertex 19.4635 80.6554 5
      vertex 19.4635 80.6554 0
    endloop
  endfacet
  facet normal 0.999048 0.0436193 0
    outer loop
      vertex 18.6664 62.3991 5
      vertex 18.4 68.5 0
      vertex 18.4 68.5 5
    endloop
  endfacet
  facet normal 0.999048 0.0436193 0
    outer loop
      vertex 18.4 68.5 0
      vertex 18.6664 62.3991 5
      vertex 18.6664 62.3991 0
    endloop
  endfacet
  facet normal 0.843391 0.5373 0
    outer loop
      vertex 30 30.0125 5
      vertex 27.7782 33.5 0
      vertex 27.7782 33.5 5
    endloop
  endfacet
  facet normal 0.843391 0.5373 0
    outer loop
      vertex 27.7782 33.5 0
      vertex 30 30.0125 5
      vertex 30 30.0125 0
    endloop
  endfacet
  facet normal 0.953717 0.300706 0
    outer loop
      vertex 22.6215 44.5586 5
      vertex 20.7852 50.3827 0
      vertex 20.7852 50.3827 5
    endloop
  endfacet
  facet normal 0.953717 0.300706 0
    outer loop
      vertex 20.7852 50.3827 0
      vertex 22.6215 44.5586 5
      vertex 22.6215 44.5586 0
    endloop
  endfacet
  facet normal 0.92388 -0.382683 0
    outer loop
      vertex 22.6215 92.4414 5
      vertex 24.9585 98.0833 0
      vertex 24.9585 98.0833 5
    endloop
  endfacet
  facet normal 0.92388 -0.382683 0
    outer loop
      vertex 24.9585 98.0833 0
      vertex 22.6215 92.4414 5
      vertex 22.6215 92.4414 0
    endloop
  endfacet
  facet normal 0.976296 0.216439 0
    outer loop
      vertex 20.7852 50.3827 5
      vertex 19.4635 56.3446 0
      vertex 19.4635 56.3446 5
    endloop
  endfacet
  facet normal 0.976296 0.216439 0
    outer loop
      vertex 19.4635 56.3446 0
      vertex 20.7852 50.3827 5
      vertex 20.7852 50.3827 0
    endloop
  endfacet
  facet normal 0.991445 0.130526 0
    outer loop
      vertex 19.4635 56.3446 5
      vertex 18.6664 62.3991 0
      vertex 18.6664 62.3991 5
    endloop
  endfacet
  facet normal 0.991445 0.130526 0
    outer loop
      vertex 18.6664 62.3991 0
      vertex 19.4635 56.3446 5
      vertex 19.4635 56.3446 0
    endloop
  endfacet
  facet normal 0.92388 0.382683 0
    outer loop
      vertex 24.9585 38.9167 5
      vertex 22.6215 44.5586 0
      vertex 22.6215 44.5586 5
    endloop
  endfacet
  facet normal 0.92388 0.382683 0
    outer loop
      vertex 22.6215 44.5586 0
      vertex 24.9585 38.9167 5
      vertex 24.9585 38.9167 0
    endloop
  endfacet
  facet normal -0.999048 -0.0436194 0
    outer loop
      vertex 11.6 68.5 0
      vertex 11.3336 74.6009 5
      vertex 11.3336 74.6009 0
    endloop
  endfacet
  facet normal -0.999048 -0.0436194 0
    outer loop
      vertex 11.3336 74.6009 5
      vertex 11.6 68.5 0
      vertex 11.6 68.5 5
    endloop
  endfacet
  facet normal -0.887011 -0.461748 0
    outer loop
      vertex 5.04154 98.0833 0
      vertex 2.22178 103.5 5
      vertex 2.22178 103.5 0
    endloop
  endfacet
  facet normal -0.887011 -0.461748 0
    outer loop
      vertex 2.22178 103.5 5
      vertex 5.04154 98.0833 0
      vertex 5.04154 98.0833 5
    endloop
  endfacet
  facet normal -0.976296 -0.21644 0
    outer loop
      vertex 10.5365 80.6554 0
      vertex 9.21481 86.6173 5
      vertex 9.21481 86.6173 0
    endloop
  endfacet
  facet normal -0.976296 -0.21644 0
    outer loop
      vertex 9.21481 86.6173 5
      vertex 10.5365 80.6554 0
      vertex 10.5365 80.6554 5
    endloop
  endfacet
  facet normal -0.991445 -0.130526 0
    outer loop
      vertex 11.3336 74.6009 0
      vertex 10.5365 80.6554 5
      vertex 10.5365 80.6554 0
    endloop
  endfacet
  facet normal -0.991445 -0.130526 0
    outer loop
      vertex 10.5365 80.6554 5
      vertex 11.3336 74.6009 0
      vertex 11.3336 74.6009 5
    endloop
  endfacet
  facet normal -0.793353 -0.608762 0
    outer loop
      vertex -1.05936 108.65 0
      vertex -2.49491 110.521 5
      vertex -2.49491 110.521 0
    endloop
  endfacet
  facet normal -0.793353 -0.608762 0
    outer loop
      vertex -2.49491 110.521 5
      vertex -1.05936 108.65 0
      vertex -1.05936 108.65 5
    endloop
  endfacet
  facet normal -0.843392 -0.537299 0
    outer loop
      vertex 2.22178 103.5 0
      vertex -1.05936 108.65 5
      vertex -1.05936 108.65 0
    endloop
  endfacet
  facet normal -0.843392 -0.537299 0
    outer loop
      vertex -1.05936 108.65 5
      vertex 2.22178 103.5 0
      vertex 2.22178 103.5 5
    endloop
  endfacet
  facet normal -0.976296 0.21644 0
    outer loop
      vertex 9.21481 50.3827 0
      vertex 10.5365 56.3446 5
      vertex 10.5365 56.3446 0
    endloop
  endfacet
  facet normal -0.976296 0.21644 0
    outer loop
      vertex 10.5365 56.3446 5
      vertex 9.21481 50.3827 0
      vertex 9.21481 50.3827 5
    endloop
  endfacet
  facet normal -0.999048 0.0436193 0
    outer loop
      vertex 11.3336 62.3991 0
      vertex 11.6 68.5 5
      vertex 11.6 68.5 0
    endloop
  endfacet
  facet normal -0.999048 0.0436193 0
    outer loop
      vertex 11.6 68.5 5
      vertex 11.3336 62.3991 0
      vertex 11.3336 62.3991 5
    endloop
  endfacet
  facet normal -0.92388 -0.382683 0
    outer loop
      vertex 7.37848 92.4414 0
      vertex 5.04154 98.0833 5
      vertex 5.04154 98.0833 0
    endloop
  endfacet
  facet normal -0.92388 -0.382683 0
    outer loop
      vertex 5.04154 98.0833 5
      vertex 7.37848 92.4414 0
      vertex 7.37848 92.4414 5
    endloop
  endfacet
  facet normal -0.953717 -0.300706 0
    outer loop
      vertex 9.21481 86.6173 0
      vertex 7.37848 92.4414 5
      vertex 7.37848 92.4414 0
    endloop
  endfacet
  facet normal -0.953717 -0.300706 0
    outer loop
      vertex 7.37848 92.4414 5
      vertex 9.21481 86.6173 0
      vertex 9.21481 86.6173 5
    endloop
  endfacet
  facet normal -0.92388 0.382683 0
    outer loop
      vertex 5.04154 38.9167 0
      vertex 7.37848 44.5586 5
      vertex 7.37848 44.5586 0
    endloop
  endfacet
  facet normal -0.92388 0.382683 0
    outer loop
      vertex 7.37848 44.5586 5
      vertex 5.04154 38.9167 0
      vertex 5.04154 38.9167 5
    endloop
  endfacet
  facet normal -0.953717 0.300706 0
    outer loop
      vertex 7.37848 44.5586 0
      vertex 9.21481 50.3827 5
      vertex 9.21481 50.3827 0
    endloop
  endfacet
  facet normal -0.953717 0.300706 0
    outer loop
      vertex 9.21481 50.3827 5
      vertex 7.37848 44.5586 0
      vertex 7.37848 44.5586 5
    endloop
  endfacet
  facet normal -0.991445 0.130526 0
    outer loop
      vertex 10.5365 56.3446 0
      vertex 11.3336 62.3991 5
      vertex 11.3336 62.3991 0
    endloop
  endfacet
  facet normal -0.991445 0.130526 0
    outer loop
      vertex 11.3336 62.3991 5
      vertex 10.5365 56.3446 0
      vertex 10.5365 56.3446 5
    endloop
  endfacet
  facet normal -0.887011 0.461749 0
    outer loop
      vertex 2.22178 33.5 0
      vertex 5.04154 38.9167 5
      vertex 5.04154 38.9167 0
    endloop
  endfacet
  facet normal -0.887011 0.461749 0
    outer loop
      vertex 5.04154 38.9167 5
      vertex 2.22178 33.5 0
      vertex 2.22178 33.5 5
    endloop
  endfacet
  facet normal -0.843391 0.5373 0
    outer loop
      vertex 0 30.0125 0
      vertex 2.22178 33.5 5
      vertex 2.22178 33.5 0
    endloop
  endfacet
  facet normal -0.843391 0.5373 0
    outer loop
      vertex 2.22178 33.5 5
      vertex 0 30.0125 0
      vertex 0 30.0125 5
    endloop
  endfacet
endsolid OpenSCAD_Model
